<svg width="18" height="19" viewBox="0 0 18 19" fill="none" xmlns="http://www.w3.org/2000/svg">
                  <path d="M0.899994 9.90957C0.899994 5.43606 4.52649 1.80957 8.99999 1.80957C13.4735 1.80957 17.1 5.43606 17.1 9.90957C17.1 14.3831 13.4735 18.0096 8.99999 18.0096C4.52649 18.0096 0.899994 14.3831 0.899994 9.90957Z" fill="#06182C" stroke="#0A2540" stroke-width="2"></path>
                  <path d="M8.99999 1.80957C4.52649 1.80957 0.899994 5.43606 0.899994 9.90957C0.899994 14.3831 4.52649 18.0096 8.99999 18.0096C13.4735 18.0096 17.1 14.3831 17.1 9.90957C17.1 5.43606 13.4735 1.80957 8.99999 1.80957ZM12.4755 5.60348L14.1584 7.28636L8.90211 12.5437L7.2291 14.2157L5.54622 12.5328L3.84158 10.8271L5.51359 9.15512L7.21824 10.8608L12.4755 5.60348Z" fill="white"></path>
                </svg>