<svg xmlns="http://www.w3.org/2000/svg" aria-hidden="true" role="img" width="24" height="24" preserveAspectRatio="xMidYMid meet" viewBox="0 0 48 48"><mask id="svgIDa1"><g fill="none"><path fill="#fff" stroke="#fff" stroke-linejoin="round" stroke-width="4" d="M34 6H14a8 8 0 0 0-8 8v20a8 8 0 0 0 8 8h20a8 8 0 0 0 8-8V14a8 8 0 0 0-8-8Z"></path><path fill="#000" stroke="#000" stroke-linejoin="round" stroke-width="4" d="M24 32a8 8 0 1 0 0-16a8 8 0 0 0 0 16Z"></path><path fill="#000" d="M35 15a2 2 0 1 0 0-4a2 2 0 0 0 0 4Z"></path></g></mask><path fill="currentColor" d="M0 0h48v48H0z" mask="url(#svgIDa1)"></path></svg>